<?xml version="1.0" standalone="no"?><!DOCTYPE svg PUBLIC "-//W3C//DTD SVG 1.1//EN" "http://www.w3.org/Graphics/SVG/1.1/DTD/svg11.dtd"><svg t="1572872682539" class="icon" viewBox="0 0 1024 1024" version="1.1" xmlns="http://www.w3.org/2000/svg" p-id="2054" xmlns:xlink="http://www.w3.org/1999/xlink" width="128" height="128"><defs><style type="text/css"></style></defs><path d="M921.6 614.4m-34.133333 0a34.133333 34.133333 0 1 0 68.266666 0 34.133333 34.133333 0 1 0-68.266666 0Z" p-id="2055" fill="#544654"></path><path d="M525.653333 911.36c-102.4 0-221.866667-40.96-242.346666-116.053333-3.413333-6.826667-3.413333-13.653333-6.826667-20.48-13.653333-58.026667-20.48-58.026667-40.96-51.2-61.44 13.653333-119.466667 6.826667-157.013333-23.893334-27.306667-23.893333-44.373333-58.026667-44.373334-95.573333C27.306667 307.2 266.24 143.36 508.586667 116.053333c146.773333-17.066667 293.546667 27.306667 385.706666 116.053334 71.68 68.266667 102.4 157.013333 95.573334 256 0 17.066667-17.066667 34.133333-37.546667 30.72-20.48 0-34.133333-17.066667-30.72-37.546667 6.826667-78.506667-20.48-150.186667-75.093333-201.386667C771.413333 204.8 645.12 170.666667 515.413333 184.32 303.786667 208.213333 95.573333 348.16 102.4 600.746667c0 17.066667 6.826667 30.72 20.48 40.96 20.48 17.066667 58.026667 20.48 98.986667 10.24 88.746667-20.48 109.226667 61.44 119.466666 102.4 3.413333 6.826667 3.413333 13.653333 6.826667 20.48 10.24 30.72 88.746667 64.853333 177.493333 64.853333 119.466667 0 232.106667-54.613333 307.2-146.773333 13.653333-13.653333 34.133333-17.066667 47.786667-3.413334 13.653333 13.653333 17.066667 34.133333 3.413333 47.786667-88.746667 112.64-221.866667 174.08-358.4 174.08z" p-id="2056" fill="#544654"></path><path d="M706.56 419.84c-23.893333 0-44.373333-20.48-44.373333-44.373333 0-23.893333 20.48-44.373333 44.373333-44.373334s44.373333 20.48 44.373333 44.373334c0 27.306667-20.48 44.373333-44.373333 44.373333zM556.373333 740.693333c-44.373333 0-78.506667-34.133333-78.506666-78.506666 0-44.373333 34.133333-78.506667 78.506666-78.506667s78.506667 34.133333 78.506667 78.506667c3.413333 40.96-34.133333 78.506667-78.506667 78.506666zM546.133333 375.466667c-23.893333 0-44.373333-20.48-44.373333-44.373334s20.48-44.373333 44.373333-44.373333c23.893333 0 44.373333 20.48 44.373334 44.373333 0 23.893333-20.48 44.373333-44.373334 44.373334zM385.706667 419.84c-23.893333 0-44.373333-20.48-44.373334-44.373333 0-23.893333 20.48-44.373333 44.373334-44.373334 23.893333 0 44.373333 20.48 44.373333 44.373334 3.413333 27.306667-17.066667 44.373333-44.373333 44.373333zM273.066667 535.893333c-23.893333 0-44.373333-20.48-44.373334-44.373333 0-27.306667 20.48-47.786667 44.373334-47.786667 23.893333 0 44.373333 20.48 44.373333 44.373334 0 27.306667-20.48 47.786667-44.373333 47.786666z" p-id="2057" fill="#544654"></path></svg>